G04 start of page 10 for group -4015 idx -4015 *
G04 Title: (unknown), toppaste *
G04 Creator: pcb 4.0.2 *
G04 CreationDate: Thu Dec 31 16:53:57 2020 UTC *
G04 For: petersen *
G04 Format: Gerber/RS-274X *
G04 PCB-Dimensions (mil): 3250.00 3900.00 *
G04 PCB-Coordinate-Origin: lower left *
%MOIN*%
%FSLAX25Y25*%
%LNTOPPASTE*%
%ADD66C,0.0001*%
G54D66*G36*
X220048Y67602D02*Y62484D01*
X225952D01*
Y67602D01*
X220048D01*
G37*
G36*
Y60516D02*Y55398D01*
X225952D01*
Y60516D01*
X220048D01*
G37*
G36*
X204650Y77642D02*X198350D01*
Y65043D01*
X204650D01*
Y77642D01*
G37*
G36*
Y57957D02*X198350D01*
Y45358D01*
X204650D01*
Y57957D01*
G37*
G36*
X182300Y196500D02*Y194100D01*
X186300D01*
Y196500D01*
X182300D01*
G37*
G36*
Y192600D02*Y190200D01*
X186300D01*
Y192600D01*
X182300D01*
G37*
G36*
Y188700D02*Y186300D01*
X186300D01*
Y188700D01*
X182300D01*
G37*
G36*
X190500D02*Y186300D01*
X194500D01*
Y188700D01*
X190500D01*
G37*
G36*
Y192600D02*Y190200D01*
X194500D01*
Y192600D01*
X190500D01*
G37*
G36*
Y196500D02*Y194100D01*
X194500D01*
Y196500D01*
X190500D01*
G37*
G36*
X169548Y302016D02*Y296898D01*
X175452D01*
Y302016D01*
X169548D01*
G37*
G36*
Y309102D02*Y303984D01*
X175452D01*
Y309102D01*
X169548D01*
G37*
G36*
Y320016D02*Y314898D01*
X175452D01*
Y320016D01*
X169548D01*
G37*
G36*
Y327102D02*Y321984D01*
X175452D01*
Y327102D01*
X169548D01*
G37*
G36*
Y222016D02*Y216898D01*
X175452D01*
Y222016D01*
X169548D01*
G37*
G36*
Y229102D02*Y223984D01*
X175452D01*
Y229102D01*
X169548D01*
G37*
G36*
Y240016D02*Y234898D01*
X175452D01*
Y240016D01*
X169548D01*
G37*
G36*
Y247102D02*Y241984D01*
X175452D01*
Y247102D01*
X169548D01*
G37*
G36*
Y142016D02*Y136898D01*
X175452D01*
Y142016D01*
X169548D01*
G37*
G36*
Y149102D02*Y143984D01*
X175452D01*
Y149102D01*
X169548D01*
G37*
G36*
Y160016D02*Y154898D01*
X175452D01*
Y160016D01*
X169548D01*
G37*
G36*
Y167102D02*Y161984D01*
X175452D01*
Y167102D01*
X169548D01*
G37*
G36*
X190500Y268700D02*Y266300D01*
X194500D01*
Y268700D01*
X190500D01*
G37*
G36*
Y272600D02*Y270200D01*
X194500D01*
Y272600D01*
X190500D01*
G37*
G36*
Y276500D02*Y274100D01*
X194500D01*
Y276500D01*
X190500D01*
G37*
G36*
X182300D02*Y274100D01*
X186300D01*
Y276500D01*
X182300D01*
G37*
G36*
Y272600D02*Y270200D01*
X186300D01*
Y272600D01*
X182300D01*
G37*
G36*
Y268700D02*Y266300D01*
X186300D01*
Y268700D01*
X182300D01*
G37*
G36*
X236548Y51516D02*Y46398D01*
X242452D01*
Y51516D01*
X236548D01*
G37*
G36*
Y58602D02*Y53484D01*
X242452D01*
Y58602D01*
X236548D01*
G37*
G36*
Y69516D02*Y64398D01*
X242452D01*
Y69516D01*
X236548D01*
G37*
G36*
Y76602D02*Y71484D01*
X242452D01*
Y76602D01*
X236548D01*
G37*
M02*
