G04 start of page 2 for group 0 idx 0 *
G04 Title: (unknown), top *
G04 Creator: pcb 4.0.2 *
G04 CreationDate: Thu Dec 31 16:53:57 2020 UTC *
G04 For: petersen *
G04 Format: Gerber/RS-274X *
G04 PCB-Dimensions (mil): 3250.00 3900.00 *
G04 PCB-Coordinate-Origin: lower left *
%MOIN*%
%FSLAX25Y25*%
%LNTOP*%
%ADD27C,0.0300*%
%ADD26C,0.0380*%
%ADD25C,0.0520*%
%ADD24C,0.0550*%
%ADD23C,0.1285*%
%ADD22C,0.0360*%
%ADD21C,0.0600*%
%ADD20C,0.0820*%
%ADD19C,0.0700*%
%ADD18C,0.0900*%
%ADD17C,0.2937*%
%ADD16C,0.0100*%
%ADD15C,0.0500*%
%ADD14C,0.0400*%
%ADD13C,0.0200*%
%ADD12C,0.0250*%
%ADD11C,0.0001*%
G54D11*G36*
X22000Y246000D02*Y266000D01*
X96500D01*
Y246000D01*
X22000D01*
G37*
G36*
X96500Y238500D02*X80500D01*
X73000Y246000D01*
Y266000D01*
X96500D01*
Y238500D01*
G37*
G36*
X22000Y217000D02*X83000D01*
Y197000D01*
X22000D01*
Y217000D01*
G37*
G36*
Y326000D02*Y346000D01*
X96500D01*
Y326000D01*
X22000D01*
G37*
G36*
X96500Y318500D02*X80500D01*
X73000Y326000D01*
Y346000D01*
X96500D01*
Y318500D01*
G37*
G36*
X22000Y297000D02*X83000D01*
Y277000D01*
X22000D01*
Y297000D01*
G37*
G36*
X83500Y304500D02*Y277000D01*
X60000D01*
Y297000D01*
X67500Y304500D01*
X83500D01*
G37*
G36*
Y224500D02*Y197000D01*
X60000D01*
Y217000D01*
X67500Y224500D01*
X83500D01*
G37*
G36*
X22000Y166000D02*Y186000D01*
X96500D01*
Y166000D01*
X22000D01*
G37*
G36*
X96500Y158500D02*X80500D01*
X73000Y166000D01*
Y186000D01*
X96500D01*
Y158500D01*
G37*
G36*
X22000Y137000D02*X83000D01*
Y117000D01*
X22000D01*
Y137000D01*
G37*
G36*
X83500Y144500D02*Y117000D01*
X60000D01*
Y137000D01*
X67500Y144500D01*
X83500D01*
G37*
G36*
X166994Y60500D02*X226500D01*
Y26000D01*
X166994D01*
Y27488D01*
X167000Y27488D01*
X167628Y27537D01*
X168240Y27684D01*
X168822Y27925D01*
X169358Y28254D01*
X169837Y28663D01*
X170246Y29142D01*
X170575Y29678D01*
X170816Y30260D01*
X170963Y30872D01*
X171000Y31500D01*
X170963Y32128D01*
X170816Y32740D01*
X170575Y33322D01*
X170246Y33858D01*
X169837Y34337D01*
X169358Y34746D01*
X168822Y35075D01*
X168240Y35316D01*
X167628Y35463D01*
X167000Y35512D01*
X166994Y35512D01*
Y60500D01*
G37*
G36*
X161500Y26000D02*Y60500D01*
X166994D01*
Y35512D01*
X166372Y35463D01*
X165760Y35316D01*
X165178Y35075D01*
X164642Y34746D01*
X164163Y34337D01*
X163754Y33858D01*
X163425Y33322D01*
X163184Y32740D01*
X163037Y32128D01*
X162988Y31500D01*
X163037Y30872D01*
X163184Y30260D01*
X163425Y29678D01*
X163754Y29142D01*
X164163Y28663D01*
X164642Y28254D01*
X165178Y27925D01*
X165760Y27684D01*
X166372Y27537D01*
X166994Y27488D01*
Y26000D01*
X161500D01*
G37*
G36*
X170284Y100500D02*X226500D01*
Y62500D01*
X170284D01*
Y89369D01*
X170287Y89370D01*
X170355Y89409D01*
X170416Y89458D01*
X170469Y89517D01*
X170511Y89583D01*
X170674Y89908D01*
X170803Y90248D01*
X170901Y90598D01*
X170967Y90956D01*
X171000Y91318D01*
Y91682D01*
X170967Y92044D01*
X170901Y92402D01*
X170803Y92752D01*
X170674Y93092D01*
X170515Y93419D01*
X170472Y93485D01*
X170419Y93544D01*
X170357Y93594D01*
X170288Y93633D01*
X170284Y93635D01*
Y100500D01*
G37*
G36*
X167002D02*X170284D01*
Y93635D01*
X170214Y93661D01*
X170137Y93677D01*
X170058Y93681D01*
X169979Y93673D01*
X169903Y93652D01*
X169830Y93620D01*
X169764Y93577D01*
X169705Y93524D01*
X169656Y93462D01*
X169616Y93393D01*
X169588Y93319D01*
X169572Y93242D01*
X169568Y93163D01*
X169576Y93084D01*
X169597Y93007D01*
X169630Y92936D01*
X169753Y92693D01*
X169850Y92438D01*
X169923Y92176D01*
X169972Y91908D01*
X169997Y91636D01*
Y91364D01*
X169972Y91092D01*
X169923Y90824D01*
X169850Y90562D01*
X169753Y90307D01*
X169633Y90063D01*
X169600Y89991D01*
X169579Y89916D01*
X169571Y89837D01*
X169575Y89759D01*
X169591Y89682D01*
X169619Y89608D01*
X169658Y89540D01*
X169707Y89479D01*
X169766Y89426D01*
X169832Y89383D01*
X169904Y89351D01*
X169980Y89330D01*
X170058Y89322D01*
X170136Y89326D01*
X170213Y89342D01*
X170284Y89369D01*
Y62500D01*
X167002D01*
Y87500D01*
X167182D01*
X167544Y87533D01*
X167902Y87599D01*
X168252Y87697D01*
X168592Y87826D01*
X168919Y87985D01*
X168985Y88028D01*
X169044Y88081D01*
X169094Y88143D01*
X169133Y88212D01*
X169161Y88286D01*
X169177Y88363D01*
X169181Y88442D01*
X169173Y88521D01*
X169152Y88597D01*
X169120Y88670D01*
X169077Y88736D01*
X169024Y88795D01*
X168962Y88844D01*
X168893Y88884D01*
X168819Y88912D01*
X168742Y88928D01*
X168663Y88932D01*
X168584Y88924D01*
X168507Y88903D01*
X168436Y88870D01*
X168193Y88747D01*
X167938Y88650D01*
X167676Y88577D01*
X167408Y88528D01*
X167136Y88503D01*
X167002D01*
Y94497D01*
X167136D01*
X167408Y94472D01*
X167676Y94423D01*
X167938Y94350D01*
X168193Y94253D01*
X168437Y94133D01*
X168509Y94100D01*
X168584Y94079D01*
X168663Y94071D01*
X168741Y94075D01*
X168818Y94091D01*
X168892Y94119D01*
X168960Y94158D01*
X169021Y94207D01*
X169074Y94266D01*
X169117Y94332D01*
X169149Y94404D01*
X169170Y94480D01*
X169178Y94558D01*
X169174Y94636D01*
X169158Y94713D01*
X169130Y94787D01*
X169091Y94855D01*
X169042Y94916D01*
X168983Y94969D01*
X168917Y95011D01*
X168592Y95174D01*
X168252Y95303D01*
X167902Y95401D01*
X167544Y95467D01*
X167182Y95500D01*
X167002D01*
Y100500D01*
G37*
G36*
X163716D02*X167002D01*
Y95500D01*
X166818D01*
X166456Y95467D01*
X166098Y95401D01*
X165748Y95303D01*
X165408Y95174D01*
X165081Y95015D01*
X165015Y94972D01*
X164956Y94919D01*
X164906Y94857D01*
X164867Y94788D01*
X164839Y94714D01*
X164823Y94637D01*
X164819Y94558D01*
X164827Y94479D01*
X164848Y94403D01*
X164880Y94330D01*
X164923Y94264D01*
X164976Y94205D01*
X165038Y94156D01*
X165107Y94116D01*
X165181Y94088D01*
X165258Y94072D01*
X165337Y94068D01*
X165416Y94076D01*
X165493Y94097D01*
X165564Y94130D01*
X165807Y94253D01*
X166062Y94350D01*
X166324Y94423D01*
X166592Y94472D01*
X166864Y94497D01*
X167002D01*
Y88503D01*
X166864D01*
X166592Y88528D01*
X166324Y88577D01*
X166062Y88650D01*
X165807Y88747D01*
X165563Y88867D01*
X165491Y88900D01*
X165415Y88921D01*
X165337Y88929D01*
X165259Y88925D01*
X165182Y88909D01*
X165108Y88881D01*
X165040Y88842D01*
X164979Y88793D01*
X164926Y88734D01*
X164883Y88668D01*
X164851Y88596D01*
X164830Y88520D01*
X164822Y88442D01*
X164826Y88364D01*
X164842Y88287D01*
X164870Y88213D01*
X164909Y88145D01*
X164958Y88084D01*
X165017Y88031D01*
X165083Y87989D01*
X165408Y87826D01*
X165748Y87697D01*
X166098Y87599D01*
X166456Y87533D01*
X166818Y87500D01*
X167002D01*
Y62500D01*
X163716D01*
Y89365D01*
X163786Y89339D01*
X163863Y89323D01*
X163942Y89319D01*
X164021Y89327D01*
X164097Y89348D01*
X164170Y89380D01*
X164236Y89423D01*
X164295Y89476D01*
X164344Y89538D01*
X164384Y89607D01*
X164412Y89681D01*
X164428Y89758D01*
X164432Y89837D01*
X164424Y89916D01*
X164403Y89993D01*
X164370Y90064D01*
X164247Y90307D01*
X164150Y90562D01*
X164077Y90824D01*
X164028Y91092D01*
X164003Y91364D01*
Y91636D01*
X164028Y91908D01*
X164077Y92176D01*
X164150Y92438D01*
X164247Y92693D01*
X164367Y92937D01*
X164400Y93009D01*
X164421Y93085D01*
X164429Y93163D01*
X164425Y93241D01*
X164409Y93318D01*
X164381Y93392D01*
X164342Y93460D01*
X164293Y93521D01*
X164234Y93574D01*
X164168Y93617D01*
X164096Y93649D01*
X164020Y93670D01*
X163942Y93678D01*
X163864Y93674D01*
X163787Y93658D01*
X163716Y93631D01*
Y100500D01*
G37*
G36*
X158000D02*X163716D01*
Y93631D01*
X163713Y93630D01*
X163645Y93591D01*
X163584Y93542D01*
X163531Y93483D01*
X163489Y93417D01*
X163326Y93092D01*
X163197Y92752D01*
X163099Y92402D01*
X163033Y92044D01*
X163000Y91682D01*
Y91318D01*
X163033Y90956D01*
X163099Y90598D01*
X163197Y90248D01*
X163326Y89908D01*
X163485Y89581D01*
X163528Y89515D01*
X163581Y89456D01*
X163643Y89406D01*
X163712Y89367D01*
X163716Y89365D01*
Y62500D01*
X158000D01*
Y100500D01*
G37*
G54D12*X145000Y113500D02*Y318000D01*
X153500Y246500D02*X145000D01*
G54D13*X153500Y216972D02*Y207500D01*
X192500Y267500D02*X199300D01*
X309500Y242500D02*X239000D01*
G54D14*X309500Y282500D02*X315000D01*
X319000Y278500D01*
G54D13*X219500Y242500D02*X210000D01*
X206000Y246500D01*
X219500Y282500D02*X231500D01*
X239000Y275000D01*
Y200000D01*
X231500Y192500D01*
X219500D01*
G54D14*X319000Y278500D02*Y101000D01*
X313500Y95500D01*
G54D13*X219500Y232500D02*X193000D01*
X219500Y222500D02*X211000D01*
X208500Y220000D01*
X202000Y232500D02*Y194500D01*
X198900Y191400D01*
X208500Y220000D02*Y186500D01*
X203000Y181000D01*
G54D12*X145000Y318000D02*X153500Y326500D01*
G54D13*Y296972D02*Y287500D01*
X158000Y283000D01*
X189500D01*
X192500Y280000D01*
Y275300D01*
X184300D02*X177500D01*
X172500Y317457D02*Y306543D01*
X206000Y320500D02*X201957Y324543D01*
X172500D01*
Y299457D02*Y294000D01*
Y237457D02*Y226543D01*
Y219457D02*Y214000D01*
X206000Y246500D02*Y320500D01*
X192500Y271400D02*X206000D01*
X193000Y232500D02*X180957Y244543D01*
X172500D01*
X153500Y207500D02*X158000Y203000D01*
X189500D01*
X192500Y200000D01*
Y195300D01*
X203000Y181000D02*X176000D01*
X184300Y187500D02*X171500D01*
X162500Y178500D01*
X176000Y181000D02*X172500Y177500D01*
X188500Y181000D02*Y190000D01*
X184300Y195300D02*X177500D01*
X192500Y187500D02*X199300D01*
X198900Y191400D02*X192500D01*
X188500Y190000D02*X187100Y191400D01*
X184300D01*
G54D14*X313500Y95500D02*X211500D01*
G54D13*X239500Y66957D02*Y56043D01*
Y48957D02*Y43500D01*
Y74043D02*Y95500D01*
G54D12*X163500Y95000D02*X145000Y113500D01*
G54D13*X172500Y139457D02*Y134000D01*
G54D15*X34500Y91500D02*X54500D01*
G54D16*X64500D01*
G54D15*X77000D01*
Y21500D02*X64500D01*
X60000Y26000D01*
G54D16*X51500Y34500D01*
G54D15*X34500Y51500D01*
G54D12*X153500Y166500D02*X145000D01*
G54D13*X162500Y178500D02*Y145972D01*
X153500Y136972D01*
X172500Y157457D02*Y146543D01*
Y177500D02*Y164543D01*
G54D17*X308000Y373000D03*
X17000D03*
G54D11*G36*
X30000Y296000D02*Y287000D01*
X39000D01*
Y296000D01*
X30000D01*
G37*
G54D18*X34500Y311500D03*
Y331500D03*
G54D19*X153500Y326500D03*
Y296972D03*
G54D20*X88539Y326500D03*
X74760Y296972D03*
G54D11*G36*
X216500Y285500D02*Y279500D01*
X222500D01*
Y285500D01*
X216500D01*
G37*
G54D21*X219500Y272500D03*
Y262500D03*
Y252500D03*
Y242500D03*
Y232500D03*
Y222500D03*
Y212500D03*
Y202500D03*
Y192500D03*
G54D19*X153500Y246500D03*
Y216972D03*
G54D20*X88539Y246500D03*
X74760Y216972D03*
G54D11*G36*
X30000Y216000D02*Y207000D01*
X39000D01*
Y216000D01*
X30000D01*
G37*
G54D18*X34500Y231500D03*
Y251500D03*
G54D21*X309500Y282500D03*
Y272500D03*
Y262500D03*
Y252500D03*
Y242500D03*
Y232500D03*
Y222500D03*
Y212500D03*
Y202500D03*
Y192500D03*
Y182500D03*
Y172500D03*
Y162500D03*
Y152500D03*
Y142500D03*
G54D17*X308000Y17000D03*
G54D21*X167000Y31500D03*
X219500Y142500D03*
G54D11*G36*
X74000Y24500D02*Y18500D01*
X80000D01*
Y24500D01*
X74000D01*
G37*
G54D21*X167000Y91500D03*
X77000D03*
X219500Y182500D03*
Y172500D03*
Y162500D03*
Y152500D03*
G54D17*X17000Y17000D03*
G54D19*X153500Y166500D03*
Y136972D03*
G54D20*X88539Y166500D03*
X74760Y136972D03*
G54D11*G36*
X30000Y136000D02*Y127000D01*
X39000D01*
Y136000D01*
X30000D01*
G37*
G54D18*X34500Y151500D03*
Y171500D03*
G54D11*G36*
X30000Y96000D02*Y87000D01*
X39000D01*
Y96000D01*
X30000D01*
G37*
G54D18*X34500Y71500D03*
Y51500D03*
G54D11*G36*
X182300Y196500D02*Y194100D01*
X186300D01*
Y196500D01*
X182300D01*
G37*
G36*
Y192600D02*Y190200D01*
X186300D01*
Y192600D01*
X182300D01*
G37*
G36*
Y188700D02*Y186300D01*
X186300D01*
Y188700D01*
X182300D01*
G37*
G36*
Y276500D02*Y274100D01*
X186300D01*
Y276500D01*
X182300D01*
G37*
G36*
Y272600D02*Y270200D01*
X186300D01*
Y272600D01*
X182300D01*
G37*
G36*
Y268700D02*Y266300D01*
X186300D01*
Y268700D01*
X182300D01*
G37*
G36*
X190500Y188700D02*Y186300D01*
X194500D01*
Y188700D01*
X190500D01*
G37*
G36*
Y192600D02*Y190200D01*
X194500D01*
Y192600D01*
X190500D01*
G37*
G36*
Y196500D02*Y194100D01*
X194500D01*
Y196500D01*
X190500D01*
G37*
G36*
Y268700D02*Y266300D01*
X194500D01*
Y268700D01*
X190500D01*
G37*
G36*
Y272600D02*Y270200D01*
X194500D01*
Y272600D01*
X190500D01*
G37*
G36*
Y276500D02*Y274100D01*
X194500D01*
Y276500D01*
X190500D01*
G37*
G36*
X169548Y142016D02*Y136898D01*
X175452D01*
Y142016D01*
X169548D01*
G37*
G36*
Y149102D02*Y143984D01*
X175452D01*
Y149102D01*
X169548D01*
G37*
G36*
Y160016D02*Y154898D01*
X175452D01*
Y160016D01*
X169548D01*
G37*
G36*
Y167102D02*Y161984D01*
X175452D01*
Y167102D01*
X169548D01*
G37*
G36*
X220048Y67602D02*Y62484D01*
X225952D01*
Y67602D01*
X220048D01*
G37*
G36*
Y60516D02*Y55398D01*
X225952D01*
Y60516D01*
X220048D01*
G37*
G36*
X204650Y77642D02*X198350D01*
Y65043D01*
X204650D01*
Y77642D01*
G37*
G36*
Y57957D02*X198350D01*
Y45358D01*
X204650D01*
Y57957D01*
G37*
G36*
X236548Y51516D02*Y46398D01*
X242452D01*
Y51516D01*
X236548D01*
G37*
G36*
Y58602D02*Y53484D01*
X242452D01*
Y58602D01*
X236548D01*
G37*
G36*
Y69516D02*Y64398D01*
X242452D01*
Y69516D01*
X236548D01*
G37*
G36*
Y76602D02*Y71484D01*
X242452D01*
Y76602D01*
X236548D01*
G37*
G36*
X169548Y302016D02*Y296898D01*
X175452D01*
Y302016D01*
X169548D01*
G37*
G36*
Y309102D02*Y303984D01*
X175452D01*
Y309102D01*
X169548D01*
G37*
G36*
Y320016D02*Y314898D01*
X175452D01*
Y320016D01*
X169548D01*
G37*
G36*
Y327102D02*Y321984D01*
X175452D01*
Y327102D01*
X169548D01*
G37*
G36*
Y222016D02*Y216898D01*
X175452D01*
Y222016D01*
X169548D01*
G37*
G36*
Y229102D02*Y223984D01*
X175452D01*
Y229102D01*
X169548D01*
G37*
G36*
Y240016D02*Y234898D01*
X175452D01*
Y240016D01*
X169548D01*
G37*
G36*
Y247102D02*Y241984D01*
X175452D01*
Y247102D01*
X169548D01*
G37*
G54D22*X177500Y275300D03*
X199300Y267500D03*
X172500Y294000D03*
X177500Y195300D03*
X199300Y187500D03*
X172500Y214000D03*
Y134000D03*
X206000Y31500D03*
X213500D03*
X221000D03*
X183500D03*
X191000D03*
X198500D03*
X183500Y39000D03*
X191000D03*
X198500D03*
X206000D03*
X213500D03*
X221000D03*
X239500Y43500D03*
G54D13*G54D23*G54D24*G54D14*G54D25*G54D26*G54D14*G54D25*G54D24*G54D26*G54D23*G54D27*G54D26*G54D27*G54D26*G54D23*G54D14*G54D25*G54D24*M02*
