M48
INCH
T49C0.020
T48C0.030
T47C0.038
T46C0.052
T45C0.040
T44C0.055
T43C0.129
%
T49
X017250Y029400
X017250Y021400
X017250Y013400
X017750Y027530
X017750Y019530
X018350Y003900
X018350Y003150
X019100Y003900
X019100Y003150
X019850Y003900
X019850Y003150
X019930Y026750
X019930Y018750
X020600Y003900
X020600Y003150
X021350Y003900
X021350Y003150
X022100Y003900
X022100Y003150
X023950Y004350
T48
X007700Y009150
X007700Y002150
X016700Y009150
X016700Y003150
T47
X021950Y028250
X021950Y027250
X021950Y026250
X021950Y025250
X021950Y024250
X021950Y023250
X021950Y022250
X021950Y021250
X021950Y020250
X021950Y019250
X021950Y018250
X021950Y017250
X021950Y016250
X021950Y015250
X021950Y014250
X030950Y028250
X030950Y027250
X030950Y026250
X030950Y025250
X030950Y024250
X030950Y023250
X030950Y022250
X030950Y021250
X030950Y020250
X030950Y019250
X030950Y018250
X030950Y017250
X030950Y016250
X030950Y015250
X030950Y014250
T45
X015350Y032650
X015350Y029697
X015350Y024650
X015350Y021697
X015350Y016650
X015350Y013697
T46
X007476Y029697
X007476Y021697
X007476Y013697
X008854Y032650
X008854Y024650
X008854Y016650
T44
X003450Y033150
X003450Y031150
X003450Y029150
X003450Y025150
X003450Y023150
X003450Y021150
X003450Y017150
X003450Y015150
X003450Y013150
X003450Y009150
X003450Y007150
X003450Y005150
T43
X001700Y037300
X001700Y001700
X030800Y037300
X030800Y001700
M30
