G04 start of page 7 for group -4062 idx -4062 *
G04 Title: (unknown), soldermask *
G04 Creator: pcb 4.0.2 *
G04 CreationDate: Thu Dec 31 16:53:57 2020 UTC *
G04 For: petersen *
G04 Format: Gerber/RS-274X *
G04 PCB-Dimensions (mil): 3250.00 3900.00 *
G04 PCB-Coordinate-Origin: lower left *
%MOIN*%
%FSLAX25Y25*%
%LNBOTTOMMASK*%
%ADD61C,0.0660*%
%ADD60C,0.0880*%
%ADD59C,0.0760*%
%ADD58C,0.0960*%
%ADD57C,0.0001*%
%ADD56C,0.2997*%
G54D56*X308000Y373000D03*
X17000D03*
G54D57*G36*
X29700Y296300D02*Y286700D01*
X39300D01*
Y296300D01*
X29700D01*
G37*
G54D58*X34500Y311500D03*
Y331500D03*
G54D59*X153500Y326500D03*
Y296972D03*
G54D60*X88539Y326500D03*
X74760Y296972D03*
G54D57*G36*
X216200Y285800D02*Y279200D01*
X222800D01*
Y285800D01*
X216200D01*
G37*
G54D61*X219500Y272500D03*
Y262500D03*
Y252500D03*
Y242500D03*
Y232500D03*
Y222500D03*
Y212500D03*
Y202500D03*
Y192500D03*
G54D59*X153500Y246500D03*
Y216972D03*
G54D60*X88539Y246500D03*
X74760Y216972D03*
G54D57*G36*
X29700Y216300D02*Y206700D01*
X39300D01*
Y216300D01*
X29700D01*
G37*
G54D58*X34500Y231500D03*
Y251500D03*
G54D61*X309500Y282500D03*
Y272500D03*
Y262500D03*
Y252500D03*
Y242500D03*
Y232500D03*
Y222500D03*
Y212500D03*
Y202500D03*
Y192500D03*
Y182500D03*
Y172500D03*
Y162500D03*
Y152500D03*
Y142500D03*
G54D56*X308000Y17000D03*
G54D61*X167000Y31500D03*
X219500Y142500D03*
G54D57*G36*
X73700Y24800D02*Y18200D01*
X80300D01*
Y24800D01*
X73700D01*
G37*
G54D61*X167000Y91500D03*
X77000D03*
X219500Y182500D03*
Y172500D03*
Y162500D03*
Y152500D03*
G54D56*X17000Y17000D03*
G54D59*X153500Y166500D03*
Y136972D03*
G54D60*X88539Y166500D03*
X74760Y136972D03*
G54D57*G36*
X29700Y136300D02*Y126700D01*
X39300D01*
Y136300D01*
X29700D01*
G37*
G54D58*X34500Y151500D03*
Y171500D03*
G54D57*G36*
X29700Y96300D02*Y86700D01*
X39300D01*
Y96300D01*
X29700D01*
G37*
G54D58*X34500Y71500D03*
Y51500D03*
M02*
